<svg width="200" height="200" viewBox="0 0 200 200" fill="none" xmlns="http://www.w3.org/2000/svg">
<rect width="200" height="200" fill="#CAFF29"/>
<path d="M144.408 65.2733C144.408 65.2733 120.968 65.2748 118.165 65.2748C115.968 65.2748 113.458 65.2894 112.493 64.2329C111.882 63.3435 112.268 62.1953 112.911 61.4622C113.849 60.4596 114.476 60.3033 115.816 59.3276C118.63 57.4032 125.098 53.1124 129.064 50.3956L125.543 45.6682C120.077 49.2205 106.244 58.2441 104.164 59.581C103.768 59.8359 103.768 59.1982 103.768 59.1982L103.757 55.8616V49.9914L97.8564 49.9914C97.8564 49.9914 98.1726 54.018 97.3795 55.5597C96.6988 56.6108 95.6698 56.4222 94.9516 55.9262C92.497 54.4223 81.2476 47.5387 76.735 44.7842L73.38 49.5979C78.5089 52.7944 86.9447 57.9261 91.9289 60.9609C97.3419 64.6372 88.9759 64.5402 86.6445 64.5941C81.612 64.7073 73.8194 64.5456 67.5382 64.6588C61.6911 64.7342 54.1194 64.5995 50.4589 70.1409C48.015 74.7173 51.9583 78.5015 55.919 79.1753C57.4571 79.4825 58.5841 79.7143 60.3741 79.8437C69.7531 80.5215 98.7568 80.2426 101.597 71.2459C101.699 70.9279 102.144 70.682 102.476 70.682C106.818 70.7305 122.444 70.682 122.444 70.682H144.408V65.2733ZM88.2139 72.6742C82.8866 73.9463 76.8529 74.119 70.9843 74.4263C67.431 74.5934 60.8228 74.5556 58.8345 73.9573C58.8345 73.9573 58.2235 73.8118 57.7036 73.3482C57.5536 73.2134 57.4678 73.0894 57.4196 72.9762C57.3446 72.8145 57.3338 72.6798 57.3285 72.5935C57.291 72.1407 57.4893 71.7903 57.5268 71.7257C57.6983 71.4238 57.9341 71.2675 58.1002 71.1597C58.6469 70.7985 59.5204 70.6552 60.0511 70.5775C66.5681 69.6234 88.7494 70.3381 91.9222 70.3974C93.2152 70.4216 93.1616 70.6745 93.1509 70.7338C92.556 71.5154 88.2139 72.6742 88.2139 72.6742Z" fill="#1D1D1D"/>
<path d="M101.05 47.0609C103.256 47.0609 105.044 45.277 105.044 43.0766C105.044 40.8761 103.256 39.0923 101.05 39.0923C98.8446 39.0923 97.0567 40.8761 97.0567 43.0766C97.0567 45.277 98.8446 47.0609 101.05 47.0609Z" fill="#1D1D1D"/>
<g clip-path="url(#clip0_1405_17032)">
<path d="M132.46 139.826C129.195 142.45 125.161 143.979 120.913 143.694C108.034 142.822 105.181 127.621 99.7756 118.547C98.6106 116.597 95.908 114.465 93.792 113.657C84.3767 110.059 74.8028 118.166 76.9189 128.026C79.035 137.885 90.6298 141.047 97.715 134.508C98.04 134.207 98.4996 133.542 98.7533 133.351C98.8404 133.288 98.8642 133.209 99.0148 133.248C99.2922 134.001 102.034 138.289 101.931 138.709C101.781 139.28 98.4521 141.411 97.7705 141.76C86.5006 147.641 72.8611 140.698 70.8401 128.247C68.5022 113.863 83.0531 102.522 96.4787 108.252C103.762 111.359 105.609 117.453 108.993 123.944C110.483 126.813 111.949 130.047 113.669 132.749C117.782 139.232 126.009 139.208 130.455 133.161C130.13 131.212 129.702 129.278 129.44 127.32C128.727 121.875 128.014 109.591 132.04 105.391C134.948 102.363 139.743 104.17 141.629 107.396C144.934 113.023 141.954 123.064 139.577 128.707C138.784 130.585 137.77 132.361 136.977 134.239C137.778 137.037 138.634 140.072 140.599 142.267L135.868 145.969C134.259 144.265 133.268 141.99 132.452 139.818L132.46 139.826ZM135.281 123.215C136.201 119.973 137.255 116.55 137.064 113.126C137.009 112.143 136.866 110.899 136.169 110.154C135.987 110.154 135.598 111.573 135.543 111.826C134.932 114.402 134.933 117.096 134.972 119.712C134.988 120.829 134.94 121.947 135.075 123.064C135.091 123.215 135.139 123.373 135.281 123.223V123.215Z" fill="#1D1D1D"/>
<path d="M27.4405 107.436C26.2517 110.606 25.4988 113.943 25.6652 117.359L27.607 114.339C34.8587 104.702 47.9434 104.837 54.2362 115.488C63.5326 131.228 46.0176 150.954 30.1668 139.764C29.2396 139.114 28.455 138.297 27.5436 137.632C27.9081 145.129 29.9925 152.452 33.6065 159.006L28.7482 162.169C28.3519 162.137 25.7921 156.518 25.483 155.741C22.7091 148.822 21.2429 140.556 21.5837 133.09C21.6392 131.965 22.0909 130.095 22.0117 129.128C21.9483 128.383 20.9576 126.108 20.696 125.11C19.111 118.88 19.3804 112.215 21.5995 106.2L27.4405 107.444V107.436ZM39.6456 113.325C33.5193 113.903 29.937 120.822 28.6214 126.124C28.455 126.798 28.0429 127.979 28.2885 128.589C29.089 130.618 31.8391 133.701 33.6144 134.961C42.6731 141.404 52.2865 132.1 50.3844 122.375C49.4255 117.485 44.9239 112.825 39.6456 113.317V113.325Z" fill="#1D1D1D"/>
<path d="M159.406 105.066C163.9 104.773 169.266 106.215 172.745 109.116C173.03 109.354 173.847 109.901 173.538 110.218L169.289 114.442C169.107 114.498 167.807 113.435 167.474 113.245C164.154 111.311 158.312 110.614 155.063 112.96C151.813 115.306 154.88 118.54 157.52 119.641C161.134 121.163 164.669 121.797 167.966 124.135C177.073 130.595 175.258 141.564 164.336 144.275C158.106 145.82 150.609 144.282 145.655 140.201L149.443 135.16C151.409 136.618 153.66 137.657 156.077 138.116C157.694 138.425 159.406 138.552 161.039 138.378C164.621 137.981 169.408 135.731 166.468 131.49C163.94 127.844 157.837 126.901 154.025 124.817C142.255 118.373 146.836 105.914 159.406 105.082V105.066Z" fill="#1D1D1D"/>
<path d="M67.3596 107.959H61.5104V142.341H67.3596V107.959Z" fill="#1D1D1D"/>
<path d="M183.333 145.12C185.565 145.12 187.375 143.31 187.375 141.078C187.375 138.846 185.565 137.036 183.333 137.036C181.1 137.036 179.291 138.846 179.291 141.078C179.291 143.31 181.1 145.12 183.333 145.12Z" fill="#1D1D1D"/>
<path d="M64.4749 104.725C66.6548 104.725 68.4219 102.958 68.4219 100.778C68.4219 98.5984 66.6548 96.8313 64.4749 96.8313C62.295 96.8313 60.5279 98.5984 60.5279 100.778C60.5279 102.958 62.295 104.725 64.4749 104.725Z" fill="#1D1D1D"/>
</g>
<defs>
<clipPath id="clip0_1405_17032">
<rect width="167.688" height="81.303" fill="white" transform="translate(19.6875 88.8484)"/>
</clipPath>
</defs>
</svg>
