<svg width="24" height="24" viewBox="0 0 24 24" fill="none" xmlns="http://www.w3.org/2000/svg">
<path d="M6.42 18.96C8.58 18.96 12.76 18.96 15.29 18.96C17.73 18.84 18.94 19.34 19.8 18.23C20.06 17.75 19.99 17.18 19.55 16.8C18.97 16.26 18.11 16.12 17.85 15.28C17.42 13.32 18 9.44001 17.38 7.69001C16.1 2.00001 7.75 0.790014 4.84 5.79001C3 8.69001 3.89 13.05 3.7 16.23" stroke="#1D1D1D" stroke-width="1.3" stroke-linejoin="round"/>
<path d="M14.53 18.97C14.53 20.47 13.01 21.69 11.13 21.69C9.24998 21.69 7.72998 20.47 7.72998 18.97" stroke="#1D1D1D" stroke-width="1.3" stroke-linejoin="round"/>
</svg>
