<svg width="24" height="24" viewBox="0 0 24 24" fill="none" xmlns="http://www.w3.org/2000/svg">
<path d="M21.66 7.82997C21.61 5.55997 21.95 4.32997 20.17 4.53997C15.72 4.55997 5.52002 4.49997 3.30002 4.56997C2.63002 4.72997 2.75002 5.20997 2.67002 6.03997C2.69002 7.08997 2.55002 8.66997 2.81002 9.60997C2.93002 9.92997 3.18002 9.98997 3.50002 10.01C5.98002 10.06 16.87 9.96997 21.11 10.05C21.64 10.11 21.65 10.47 21.66 11.67C21.66 12.53 21.66 13.79 21.66 15.09C21.66 16.57 21.66 18.11 21.66 19.15C21.59 20.12 21.9 20.93 20.93 20.98C18.2 20.95 6.52002 21.09 3.13002 20.93C2.74002 20.82 2.72002 20.4 2.68002 20.03C2.63002 18.41 2.66002 15.21 2.65002 13.3" stroke="#1D1D1D" stroke-width="1.3" stroke-miterlimit="10"/>
<path d="M7.72998 2V7.07" stroke="#1D1D1D" stroke-width="1.3" stroke-miterlimit="10"/>
<path d="M16.59 2V7.07" stroke="#1D1D1D" stroke-width="1.3" stroke-miterlimit="10"/>
</svg>
