<svg width="24" height="24" viewBox="0 0 24 24" fill="none" xmlns="http://www.w3.org/2000/svg">
<path d="M9.98002 4.32001V5.79001C9.98002 6.45001 10.52 6.99001 11.18 6.99001H12.78C13.44 6.99001 13.98 6.45001 13.98 5.79001V4.32001H18.6C18.99 4.32001 19.31 4.64001 19.31 5.03001V20.94C19.31 21.33 18.99 21.65 18.6 21.65H5.36002C4.97002 21.65 4.65002 21.33 4.65002 20.94V5.03001C4.65002 4.64001 4.97002 4.32001 5.36002 4.32001H9.98002Z" stroke="#1D1D1D" stroke-width="1.3" stroke-linejoin="round"/>
<path d="M13.98 4.31999V2.84999C13.98 2.18999 13.44 1.64999 12.78 1.64999H11.18C10.52 1.64999 9.97998 2.18999 9.97998 2.84999V2.97999" stroke="#1D1D1D" stroke-width="1.3" stroke-miterlimit="10"/>
<path d="M7.31995 10.98H15.3199H7.31995Z" stroke="#1D1D1D" stroke-width="1.3" stroke-linejoin="round"/>
<path d="M7.31995 13.65H12.6499H7.31995Z" stroke="#1D1D1D" stroke-width="1.3" stroke-linejoin="round"/>
</svg>
