<svg width="222" height="85" viewBox="0 0 222 85" fill="none" xmlns="http://www.w3.org/2000/svg">
<path d="M29.7305 21.8203V33H25.2305V7.54688H29.625V17.1445H29.8711C30.75 15 32.5781 13.6641 35.5312 13.6641C39.5039 13.6641 42.1055 16.2305 42.1055 20.8359V33H37.6406V21.5391C37.6406 18.9375 36.2344 17.4609 33.8789 17.4609C31.4531 17.4609 29.7305 19.043 29.7305 21.8203ZM54.6914 33.3867C49.1367 33.3867 45.5508 29.4492 45.5508 23.543C45.5508 17.6016 49.1367 13.6641 54.6914 13.6641C60.2812 13.6641 63.832 17.6016 63.832 23.543C63.832 29.4492 60.2812 33.3867 54.6914 33.3867ZM54.7266 29.8008C57.7852 29.8008 59.2969 27.0234 59.2969 23.5078C59.2969 20.0273 57.7852 17.2148 54.7266 17.2148C51.5977 17.2148 50.0859 20.0273 50.0859 23.5078C50.0859 27.0234 51.5977 29.8008 54.7266 29.8008ZM76.8398 13.9102V17.3555H73.0781V27.2695C73.0781 29.0977 73.9922 29.4844 75.1172 29.4844C75.6445 29.4844 76.5234 29.4492 77.0859 29.4141V33.0703C76.5586 33.1758 75.6797 33.2461 74.5547 33.2461C71.1797 33.2461 68.5781 31.5938 68.6133 28.0078V17.3555H65.8711V13.9102H68.6133V9.33984H73.0781V13.9102H76.8398ZM88.4062 33.3867C82.8516 33.3867 79.2656 29.4492 79.2656 23.543C79.2656 17.6016 82.8516 13.6641 88.4062 13.6641C93.9961 13.6641 97.5469 17.6016 97.5469 23.543C97.5469 29.4492 93.9961 33.3867 88.4062 33.3867ZM88.4414 29.8008C91.5 29.8008 93.0117 27.0234 93.0117 23.5078C93.0117 20.0273 91.5 17.2148 88.4414 17.2148C85.3125 17.2148 83.8008 20.0273 83.8008 23.5078C83.8008 27.0234 85.3125 29.8008 88.4414 29.8008ZM109.359 40.5586C104.297 40.5586 101.098 38.3086 100.781 34.7227H105.246C105.562 36.375 107.145 37.1836 109.43 37.1836C112.102 37.1836 113.859 36.0234 113.859 33.2109V29.5547H113.648C112.945 30.9609 111.434 32.7188 108.129 32.7188C103.734 32.7188 100.254 29.5195 100.254 23.2969C100.254 17.0039 103.734 13.6641 108.164 13.6641C111.539 13.6641 112.945 15.668 113.648 17.0391H113.859V13.9102H118.289V33.3164C118.289 38.2031 114.527 40.5586 109.359 40.5586ZM109.359 29.2031C112.242 29.2031 113.895 27.0234 113.895 23.3672C113.895 19.7461 112.277 17.3203 109.359 17.3203C106.371 17.3203 104.824 19.8867 104.824 23.3672C104.824 26.8828 106.406 29.2031 109.359 29.2031ZM122.578 33V13.9102H126.938V17.0742H127.148C127.816 14.8945 129.68 13.6289 131.859 13.6289C132.352 13.6289 133.055 13.6641 133.477 13.7344V17.8828C133.09 17.7422 132.141 17.6016 131.402 17.6016C128.906 17.6016 127.078 19.3242 127.078 21.75V33H122.578ZM134.918 27.6211C134.918 23.332 138.469 22.0664 142.02 21.8555C143.338 21.7676 146.08 21.6094 146.906 21.5742V20.0625C146.906 18.1641 145.676 17.0742 143.461 17.0742C141.457 17.0742 140.227 17.9883 139.875 19.3594H135.551C135.867 16.125 138.785 13.6641 143.566 13.6641C147.188 13.6641 151.371 15.1406 151.371 20.2383V33H147.082V30.3633H146.941C146.098 31.9805 144.305 33.3867 141.316 33.3867C137.66 33.3867 134.918 31.3828 134.918 27.6211ZM139.242 27.5859C139.242 29.2383 140.578 30.082 142.477 30.082C145.184 30.082 146.941 28.2891 146.941 26.1445V24.5625L142.723 24.8438C140.578 25.0195 139.242 25.8984 139.242 27.5859ZM155.59 40.1719V13.9102H159.984V17.0391H160.266C160.969 15.668 162.375 13.6641 165.75 13.6641C170.145 13.6641 173.625 17.1094 173.625 23.4727C173.625 29.7656 170.25 33.3516 165.75 33.3516C162.445 33.3516 160.969 31.3828 160.266 29.9766H160.09V40.1719H155.59ZM159.984 23.4375C159.984 27.1641 161.602 29.6602 164.52 29.6602C167.473 29.6602 169.055 27.0586 169.055 23.4375C169.055 19.8867 167.508 17.3203 164.52 17.3203C161.602 17.3203 159.984 19.7461 159.984 23.4375ZM181.641 21.8203V33H177.141V7.54688H181.535V17.1445H181.781C182.66 15 184.488 13.6641 187.441 13.6641C191.414 13.6641 194.016 16.2305 194.016 20.8359V33H189.551V21.5391C189.551 18.9375 188.145 17.4609 185.789 17.4609C183.363 17.4609 181.641 19.043 181.641 21.8203ZM200.273 40.1719C199.395 40.1719 198.516 40.1367 197.953 40.0664V36.4805C198.516 36.5156 199.254 36.5508 199.852 36.5508C200.941 36.5508 201.855 36.4453 202.629 34.4062L203.016 33.3867L196.055 13.9102H200.801L205.23 28.3242H205.441L209.871 13.9102H214.617L206.953 35.3203C205.863 38.3789 203.859 40.1719 200.273 40.1719ZM34.2461 73.3867C28.4805 73.3867 24.9648 69.5547 24.9648 63.5781C24.9648 57.6719 28.5508 53.6641 34 53.6641C38.6758 53.6641 42.7188 56.582 42.7188 63.2969V64.7031H29.3945C29.4473 67.9551 31.3633 69.8711 34.2812 69.8711C36.25 69.8711 37.5859 69.0273 38.1484 67.9023H42.543C41.7344 71.207 38.6758 73.3867 34.2461 73.3867ZM29.4297 61.6445H38.4297C38.3945 59.043 36.6719 57.1445 34.0703 57.1445C31.3633 57.1445 29.5703 59.2012 29.4297 61.6445ZM46.1992 73V53.9102H50.5586V57.0742H50.7695C51.4375 54.8945 53.3008 53.6289 55.4805 53.6289C55.9727 53.6289 56.6758 53.6641 57.0977 53.7344V57.8828C56.7109 57.7422 55.7617 57.6016 55.0234 57.6016C52.5273 57.6016 50.6992 59.3242 50.6992 61.75V73H46.1992ZM70.5977 59.3594C70.3164 57.918 69.1211 57.0039 67.2227 57.0039C65.2891 57.0039 63.8828 57.9531 63.918 59.2539C63.8828 60.2383 64.6914 60.9766 66.625 61.4336L69.8594 62.1016C73.4805 62.9102 75.2031 64.5625 75.2383 67.3047C75.2031 70.8906 72.0742 73.3867 67.082 73.3867C62.2305 73.3867 59.3477 71.207 58.8906 67.5508H63.4609C63.7422 69.168 65.0078 69.9766 67.082 69.9766C69.2266 69.9766 70.668 69.0977 70.668 67.6914C70.668 66.6016 69.7891 65.8984 67.8906 65.4766L64.832 64.8086C61.2812 64.1055 59.4531 62.2422 59.4531 59.5C59.4531 55.9844 62.4766 53.6641 67.1523 53.6641C71.7227 53.6641 74.5352 55.8789 74.8516 59.3594H70.5977ZM86.9805 73.3867C81.4258 73.3867 77.8398 69.4492 77.8398 63.543C77.8398 57.6016 81.4258 53.6641 86.9805 53.6641C92.5703 53.6641 96.1211 57.6016 96.1211 63.543C96.1211 69.4492 92.5703 73.3867 86.9805 73.3867ZM87.0156 69.8008C90.0742 69.8008 91.5859 67.0234 91.5859 63.5078C91.5859 60.0273 90.0742 57.2148 87.0156 57.2148C83.8867 57.2148 82.375 60.0273 82.375 63.5078C82.375 67.0234 83.8867 69.8008 87.0156 69.8008ZM104.102 61.8203V73H99.6016V53.9102H103.891V57.1445H104.137C105.016 55 106.949 53.6641 109.797 53.6641C113.77 53.6641 116.371 56.2656 116.336 60.8359V73H111.871V61.5391C111.871 58.9727 110.5 57.4609 108.145 57.4609C105.754 57.4609 104.102 59.043 104.102 61.8203ZM119.746 67.6211C119.746 63.332 123.297 62.0664 126.848 61.8555C128.166 61.7676 130.908 61.6094 131.734 61.5742V60.0625C131.734 58.1641 130.504 57.0742 128.289 57.0742C126.285 57.0742 125.055 57.9883 124.703 59.3594H120.379C120.695 56.125 123.613 53.6641 128.395 53.6641C132.016 53.6641 136.199 55.1406 136.199 60.2383V73H131.91V70.3633H131.77C130.926 71.9805 129.133 73.3867 126.145 73.3867C122.488 73.3867 119.746 71.3828 119.746 67.6211ZM124.07 67.5859C124.07 69.2383 125.406 70.082 127.305 70.082C130.012 70.082 131.77 68.2891 131.77 66.1445V64.5625L127.551 64.8438C125.406 65.0195 124.07 65.8984 124.07 67.5859ZM144.918 47.5469V73H140.418V47.5469H144.918ZM153.707 47.5469V73H149.207V47.5469H153.707ZM160.703 80.1719C159.824 80.1719 158.945 80.1367 158.383 80.0664V76.4805C158.945 76.5156 159.684 76.5508 160.281 76.5508C161.371 76.5508 162.285 76.4453 163.059 74.4062L163.445 73.3867L156.484 53.9102H161.23L165.66 68.3242H165.871L170.301 53.9102H175.047L167.383 75.3203C166.293 78.3789 164.289 80.1719 160.703 80.1719ZM179.441 73.2812C177.93 73.2812 176.699 72.0508 176.699 70.5391C176.699 69.0625 177.93 67.832 179.441 67.832C180.883 67.832 182.148 69.0625 182.148 70.5391C182.148 72.0508 180.883 73.2812 179.441 73.2812Z" fill="#BBFF00"/>
<path d="M220.367 30.5347C221.679 31.3715 222.331 33.094 221.833 34.5866C221.615 35.2387 221.094 35.9549 220.672 36.4939C219.609 37.8395 217.551 39.7543 215.9 40.3272C215.806 40.3611 215.704 40.4214 215.64 40.3272C215.621 40.3046 215.52 40.0106 215.505 39.9578C215.358 39.5206 215.241 38.9853 215.147 38.5293C215.135 38.4765 215.101 38.3257 215.128 38.2918C215.821 37.9714 216.47 37.5455 217.058 37.063C217.755 36.4901 218.43 35.789 218.98 35.0842C219.489 34.4359 220.122 33.633 219.598 32.8C219.579 32.7699 219.526 32.6756 219.523 32.6681C219.515 32.6606 219.387 32.5513 219.361 32.5324C218.426 31.7484 217.054 32.4872 217.205 33.6933C217.242 34.0024 217.457 34.3567 217.706 34.5414C217.838 34.6356 217.992 34.6809 218.12 34.7676L217.416 35.4536C217.367 35.5591 217.265 35.6232 217.186 35.7099C216.971 35.9398 216.779 36.1848 216.579 36.4109H216.552C216.507 36.4072 216.319 36.2602 216.27 36.2187C214.675 34.9221 214.581 32.506 215.995 31.0473C217.125 29.8826 218.991 29.6565 220.371 30.5347H220.367Z" fill="#CAFF29"/>
<path d="M5.57142 6.72897C4.87048 8.59813 4.42656 10.5654 4.52469 12.5794L5.66955 10.7991C9.94525 5.11682 17.6602 5.19626 21.3705 11.4766C26.8518 20.757 16.5247 32.3878 7.17889 25.7897C6.63217 25.4065 6.16955 24.9252 5.63217 24.5327C5.84712 28.9533 7.07609 33.271 9.20693 37.1355L6.34245 39C6.1088 38.9813 4.59946 35.6682 4.41721 35.2103C2.7817 31.1308 1.91721 26.257 2.11815 21.8551C2.15086 21.1916 2.41721 20.0888 2.37048 19.5187C2.3331 19.0794 1.74899 17.7383 1.59478 17.1495C0.660204 13.4766 0.819082 9.54673 2.12749 6L5.57142 6.73365V6.72897ZM12.7677 10.2009C9.15553 10.5421 7.04338 14.6215 6.26768 17.7477C6.16955 18.1449 5.92656 18.8411 6.07142 19.2009C6.54338 20.3972 8.16488 22.215 9.21161 22.9579C14.5527 26.757 20.221 21.271 19.0995 15.5374C18.534 12.6542 15.8798 9.90654 12.7677 10.1963V10.2009Z" fill="#CAFF29"/>
<path d="M5.57142 52.729C4.87048 54.5981 4.42656 56.5654 4.52469 58.5794L5.66955 56.7991C9.94525 51.1168 17.6602 51.1963 21.3705 57.4766C26.8518 66.757 16.5247 78.3878 7.17889 71.7897C6.63217 71.4065 6.16955 70.9252 5.63217 70.5327C5.84712 74.9533 7.07609 79.271 9.20693 83.1355L6.34245 85C6.1088 84.9813 4.59946 81.6682 4.41721 81.2103C2.7817 77.1308 1.91721 72.257 2.11815 67.8551C2.15086 67.1916 2.41721 66.0888 2.37048 65.5187C2.3331 65.0794 1.74899 63.7383 1.59478 63.1495C0.660204 59.4766 0.819082 55.5467 2.12749 52L5.57142 52.7336V52.729ZM12.7677 56.2009C9.15553 56.5421 7.04338 60.6215 6.26768 63.7477C6.16955 64.1449 5.92656 64.8411 6.07142 65.2009C6.54338 66.3972 8.16488 68.215 9.21161 68.9579C14.5527 72.757 20.221 67.271 19.0995 61.5374C18.534 58.6542 15.8798 55.9065 12.7677 56.1963V56.2009Z" fill="#CAFF29"/>
</svg>
