<svg width="24" height="24" viewBox="0 0 24 24" fill="none" xmlns="http://www.w3.org/2000/svg">
<path d="M6.54725 4.91291C7.92081 7.23628 11.6622 11.1652 10.8115 12.6197C9.95041 14.6031 7.85931 17.0398 6.71126 18.8814C6.09623 19.807 5.80922 20.3926 6.13723 20.6665C7.36729 21.2426 10.5859 20.8743 12.472 20.9781C14.2146 20.9781 16.0802 21.0065 17.6383 20.9498C18.2225 20.8931 18.7146 20.9215 18.9298 20.4965C19.0016 20.2131 18.8478 19.9109 18.6838 19.6181C17.7613 17.9937 15.2909 14.9053 14.2966 13.0258C13.8148 12.1286 14.0711 11.2313 14.6144 10.4002C15.6497 8.73796 18.0175 5.58347 18.7761 4.26123C18.9196 3.97789 19.0631 3.704 18.9708 3.43955L18.9401 3.38289C18.7248 3.05233 17.8228 3.03344 16.3877 3.02399C14.0711 3.08066 11.2317 2.94843 8.6896 3.02399" stroke="#1D1D1D" stroke-width="1.3" stroke-miterlimit="10"/>
<path d="M12.2139 14.8554C11.1739 15.0654 10.1239 16.7354 9.25387 17.5954C8.81387 18.2154 7.14387 19.5654 8.16387 19.9054C9.96387 20.1454 13.3139 19.9754 15.3939 20.0054C17.7139 20.0754 16.4039 18.8954 15.4639 17.7854C14.5839 16.9254 13.3739 15.0454 12.3339 14.8554H12.2139Z" fill="#1D1D1D"/>
</svg>
