<svg width="24" height="24" viewBox="0 0 24 24" fill="none" xmlns="http://www.w3.org/2000/svg">
<path d="M12 7C13.1046 7 14 6.10457 14 5C14 3.89543 13.1046 3 12 3C10.8954 3 10 3.89543 10 5C10 6.10457 10.8954 7 12 7Z" stroke="#1D1D1D" stroke-width="1.3" stroke-miterlimit="10"/>
<path d="M12 21C10.9 21 10 20.1 10 19C10 17.9 10.9 17 12 17C13.1 17 14 17.9 14 19" stroke="#1D1D1D" stroke-width="1.3" stroke-miterlimit="10"/>
<path d="M12 14C13.1046 14 14 13.1046 14 12C14 10.8954 13.1046 10 12 10C10.8954 10 10 10.8954 10 12C10 13.1046 10.8954 14 12 14Z" stroke="#1D1D1D" stroke-width="1.3" stroke-miterlimit="10"/>
</svg>
