<svg width="24" height="24" viewBox="0 0 24 24" fill="none" xmlns="http://www.w3.org/2000/svg">
<path d="M1.66999 4.65H4.16999C8.49999 4.65 14.9 4.65 19.52 4.65C21.53 4.64 21.68 4.63 21.67 6.72C21.67 9.72 21.67 13.44 21.67 16.33C21.62 17.82 21.76 18.28 20.75 18.38C17.8 18.34 5.72999 18.56 2.25999 18.3C2.02999 18.22 1.88999 18.07 1.80999 17.8C1.52999 16.11 1.72999 13.45 1.67999 11.51C1.67999 10.23 1.67999 9.32 1.93999 9.03C2.74999 8.54 4.51999 9.97 5.63999 10.39C7.07999 11.11 8.57999 11.87 10.01 12.57C11.62 13.37 11.96 13.18 13.41 11.9C15.99 9.64 19.22 6.82 21.68 4.67" stroke="#1D1D1D" stroke-width="1.3" stroke-linejoin="round"/>
</svg>
