<svg width="66" height="32" viewBox="0 0 66 32" fill="none" xmlns="http://www.w3.org/2000/svg">
<path d="M44.386 20.0645C43.1009 21.097 41.5131 21.699 39.8411 21.5867C34.7722 21.2436 33.6493 15.2607 31.5219 11.6891C31.0633 10.9217 29.9996 10.0826 29.1668 9.76443C25.461 8.34825 21.6929 11.5393 22.5257 15.4198C23.3586 19.3002 27.9222 20.5449 30.7109 17.9714C30.8387 17.8529 31.0197 17.5908 31.1195 17.516C31.1538 17.491 31.1632 17.4598 31.2224 17.4754C31.3316 17.7718 32.4109 19.4593 32.3703 19.6246C32.3111 19.8492 31.0009 20.6883 30.7327 20.8256C26.297 23.1401 20.9286 20.4076 20.1332 15.5071C19.213 9.84553 24.9401 5.38177 30.2242 7.63704C33.0909 8.85982 33.8177 11.2586 35.1497 13.8133C35.7361 14.9425 36.3132 16.2152 36.9901 17.2789C38.609 19.8305 41.8469 19.8212 43.5968 17.4411C43.4689 16.6738 43.3005 15.9126 43.1975 15.1422C42.9168 12.9992 42.6361 8.16421 44.2207 6.51096C45.3655 5.31938 47.2527 6.03059 47.9951 7.30016C49.2959 9.51488 48.123 13.4671 47.1872 15.688C46.8752 16.4273 46.476 17.1261 46.164 17.8653C46.4791 18.9665 46.816 20.1612 47.5896 21.0252L45.7273 22.482C45.0941 21.8113 44.7042 20.9161 44.3829 20.0614L44.386 20.0645ZM45.4965 13.5263C45.8583 12.2505 46.2732 10.903 46.1984 9.55544C46.1765 9.16864 46.1204 8.6789 45.8459 8.38568C45.7741 8.38568 45.6213 8.94405 45.5994 9.04386C45.3592 10.0576 45.3593 11.1182 45.3748 12.1476C45.3811 12.5874 45.3624 13.0273 45.4154 13.4671C45.4216 13.5263 45.4404 13.5887 45.4965 13.5295V13.5263Z" fill="#1D1D1D"/>
<path d="M3.05159 7.31596C2.58369 8.5637 2.28736 9.87694 2.35286 11.2214L3.1171 10.0329C5.97129 6.23979 11.1213 6.29282 13.5981 10.4852C17.257 16.6802 10.3633 24.4442 4.12465 20.0397C3.75968 19.7839 3.45087 19.4627 3.09215 19.2006C3.23564 22.1515 4.05602 25.0338 5.47844 27.6135L3.56628 28.8581C3.41032 28.8456 2.40277 26.634 2.28112 26.3283C1.18935 23.6051 0.612274 20.3517 0.746406 17.4132C0.768241 16.9703 0.946043 16.2341 0.91485 15.8536C0.889895 15.5604 0.499978 14.6651 0.39704 14.2721C-0.226827 11.8203 -0.120769 9.19692 0.752645 6.82935L3.05159 7.31908V7.31596ZM7.85537 9.63363C5.44412 9.86134 4.03419 12.5845 3.51638 14.6714C3.45087 14.9365 3.28866 15.4013 3.38536 15.6415C3.70042 16.44 4.78283 17.6534 5.48156 18.1494C9.04696 20.6854 12.8307 17.0233 12.0821 13.1959C11.7046 11.2713 9.93285 9.43711 7.85537 9.63051V9.63363Z" fill="#1D1D1D"/>
<path d="M54.9919 6.3831C56.7606 6.26768 58.8725 6.83543 60.242 7.97716C60.3543 8.07074 60.6756 8.28599 60.5539 8.41076L58.8819 10.0734C58.8101 10.0953 58.2985 9.67727 58.1675 9.60241C56.8605 8.84125 54.5614 8.56674 53.2824 9.49011C52.0034 10.4135 53.2107 11.6862 54.2495 12.1198C55.6719 12.7188 57.0632 12.9683 58.3609 13.8886C61.9452 16.431 61.2309 20.7483 56.9322 21.8152C54.4803 22.4235 51.5293 21.8183 49.5796 20.2118L51.0707 18.2278C51.8443 18.8018 52.7303 19.2104 53.6817 19.3914C54.3181 19.513 54.9919 19.5629 55.6345 19.4943C57.0445 19.3383 58.9287 18.4524 57.7714 16.7835C56.7762 15.3485 54.3742 14.9773 52.8738 14.1569C48.2413 11.6207 50.0444 6.71688 54.9919 6.38934V6.3831Z" fill="#1D1D1D"/>
<path d="M18.7631 7.52167H16.4609V21.054H18.7631V7.52167Z" fill="#1D1D1D"/>
<path d="M64.4093 22.1484C65.2879 22.1484 66.0002 21.4361 66.0002 20.5574C66.0002 19.6788 65.2879 18.9665 64.4093 18.9665C63.5306 18.9665 62.8184 19.6788 62.8184 20.5574C62.8184 21.4361 63.5306 22.1484 64.4093 22.1484Z" fill="#1D1D1D"/>
<path d="M17.6277 6.2491C18.4857 6.2491 19.1812 5.55357 19.1812 4.69559C19.1812 3.83762 18.4857 3.14209 17.6277 3.14209C16.7697 3.14209 16.0742 3.83762 16.0742 4.69559C16.0742 5.55357 16.7697 6.2491 17.6277 6.2491Z" fill="#1D1D1D"/>
</svg>
