<svg width="22" height="22" viewBox="0 0 22 22" fill="none" xmlns="http://www.w3.org/2000/svg">
<path d="M13.5599 3.68026C13.0799 2.36026 12.8899 0.850256 11.5299 0.710256C10.7399 0.630256 9.66994 0.560256 9.03994 1.01026C8.39994 1.43026 8.29994 2.64026 7.70994 3.07026C7.26994 3.41026 6.54994 3.04026 6.04994 2.84026C4.83994 2.22026 3.87994 3.22026 3.11994 4.11026C2.58994 4.70026 2.58994 5.36026 2.86994 6.02026C3.05994 6.53026 3.44994 7.18026 3.09994 7.68026C2.56994 8.35026 1.33994 8.34026 0.939942 9.17026C0.559942 10.0903 0.429941 12.0803 1.49994 12.6803C2.69994 13.2703 3.76994 13.4803 2.94994 15.0603C2.39994 16.1303 2.72994 16.9203 3.60994 17.7103C4.31994 18.4703 4.99994 18.8703 5.84994 18.5303C9.03994 16.8803 7.49994 20.4603 10.0599 20.6103C11.0099 20.6903 12.2999 20.6803 12.7299 19.8203C13.0699 19.2803 13.2199 18.5003 13.6499 18.2203C14.0599 17.9203 14.6599 18.1803 15.1099 18.3703C16.1799 18.9203 16.9699 18.5903 17.7599 17.7103C18.5199 17.0003 18.9199 16.3103 18.5799 15.4703C18.2899 14.7303 17.7199 13.7003 18.6999 13.2403C19.6099 12.8303 20.6599 12.4903 20.6699 11.2503C20.7099 10.3503 20.7999 9.30026 20.0499 8.70026C19.5499 8.28026 18.6699 8.19026 18.2799 7.66026C18.0199 7.30026 18.1799 6.81026 18.3399 6.41026C19.5099 4.60026 17.4799 3.35026 16.4399 2.23026" stroke="#1D1D1D" stroke-width="1.3" stroke-miterlimit="10"/>
<path d="M11.26 7.77002C14.15 8.33002 14.46 12.54 11.66 13.47C8.18998 14.64 6.09999 9.76002 9.29999 8.04002" stroke="#1D1D1D" stroke-width="1.3" stroke-miterlimit="10"/>
</svg>
